<svg width="1024" height="1024" viewBox="0 0 1024 1024" xmlns="http://www.w3.org/2000/svg">
  <rect width="1024" height="1024" rx="210" fill="#0e1016"/>

  <circle cx="512" cy="512" r="340" fill="#f4c94f"/>

  <g transform="translate(325.76,272) scale(0.84656)">
    <g transform="translate(0.000000,567.000000) scale(0.100000,-0.100000)" fill="#0e1016" stroke="none">
      <path d="M1961 4078 c-7 -73 -18 -185 -26 -248 -8 -63 -17 -149 -20 -190 -16
-179 -61 -258 -164 -295 -62 -21 -116 -19 -228 10 -159 42 -279 117 -323 204
-20 38 -22 54 -17 127 4 70 11 95 45 166 59 122 102 165 317 322 l20 15 -20
-4 c-116 -25 -323 -86 -395 -118 -19 -8 -53 -23 -75 -32 -402 -167 -729 -491
-838 -830 -92 -283 -74 -594 47 -842 14 -29 26 -55 26 -58 0 -15 107 -166 170
-239 35 -40 139 -140 175 -167 17 -13 32 -26 35 -29 15 -18 223 -150 236 -150
3 0 -10 19 -29 43 -147 184 -241 436 -240 642 0 141 44 229 131 267 64 29 170
21 239 -17 146 -81 259 -214 358 -420 34 -71 67 -141 74 -155 10 -23 11 -22 7
15 -17 142 -18 221 -1 270 26 75 57 111 115 130 60 20 102 15 173 -21 64 -32
107 -73 168 -162 96 -139 155 -294 209 -552 12 -58 28 -133 36 -167 8 -34 14
-75 14 -90 0 -57 17 -55 28 4 62 316 81 398 117 508 61 185 177 373 270 436
116 79 236 72 297 -18 41 -59 53 -135 39 -240 -20 -158 -15 -159 50 -8 23 55
49 107 56 116 7 8 13 19 13 23 0 18 94 147 147 202 109 111 188 154 292 161
67 4 82 2 121 -19 100 -53 144 -183 120 -348 -29 -197 -106 -382 -227 -543
-23 -31 -41 -57 -38 -57 13 0 140 82 223 145 198 149 343 326 429 523 119 271
123 615 11 880 -33 79 -41 95 -77 157 -130 221 -356 423 -627 558 -89 45 -295
129 -344 140 -14 3 -67 18 -119 32 -52 14 -102 24 -110 23 -9 -2 15 -23 59
-53 189 -126 300 -296 300 -461 0 -113 -55 -186 -195 -257 -64 -33 -233 -77
-295 -77 -96 0 -185 62 -214 148 -9 24 -25 124 -36 221 -11 97 -27 235 -35
306 -9 72 -15 146 -15 165 -1 45 -13 24 -30 -50 -6 -30 -18 -82 -26 -116 l-15
-60 -72 14 c-65 13 -151 10 -226 -9 -10 -3 -17 9 -23 36 -22 102 -51 225 -53
225 -1 0 -7 -60 -14 -132z"/>
    </g>
  </g>
</svg>
